<svg xmlns="http://www.w3.org/2000/svg" xml:space="preserve" width="91" height="30" style="shape-rendering:geometricPrecision;text-rendering:geometricPrecision;image-rendering:optimizeQuality;fill-rule:evenodd;clip-rule:evenodd" viewBox="0 0 91 29.914"><defs><style>.fil1{fill:#000;fill-rule:nonzero}</style></defs><g id="Layer_x0020_1"><path d="m70.409 18.75 4.214 4.214c.808.827 2.233.013.96-1.239-3.863-3.801-7.676-7.671-11.508-11.505-1.416-1.416.645-3.216 1.932-1.935l8.385 8.386c.775.745 1.813-.283 1.048-1.047l-4.205-4.205c0-.741 1.671-2.123 2.594-1.2l4.041 4.041c.74.741 1.905-.315 1.11-1.11l-3.69-3.689c-.163-.628 1.289-1.599 1.953-.89l3.802 3.75c.795.802 1.874-.344 1.109-1.109l-2.791-2.791c-.165-.391 1.008-1.121 1.664-.465l5.348 5.34c1.864 1.864 3.063 6.929-1.159 11.151-4.223 4.222-8.796 3.666-12.101.261l-3.38-3.38c-.666-.748.19-2.462.674-2.578zm3.524-10.093c-.901-.799-3.368.645-3.661 1.799l-3.216-3.217c-2.601-2.601-6.826 1.331-4.081 4.081l6.505 6.501c-1.447.827-2.137 3.353-.331 5.16l2.87 2.87c3.884 3.884 9.581 4.396 14.296-.32 4.715-4.715 3.8-10.604 1.02-13.381l-4.905-4.9c-1.851-1.856-3.802-.531-4.183.055-1.093-1.093-3.757-.069-4.314 1.352z" style="fill:#000"></path><path d="M7.664 13.893h2.605c2.75 0 4.125-1.375 4.125-4.125V7.076c0-2.778-1.375-4.168-4.125-4.168H6.926c-2.75 0-4.125 1.39-4.125 4.168v1.563c0 .319-.145.478-.434.478H1.108c-.319 0-.478-.159-.478-.478V7.033c0-1.882.55-3.358 1.65-4.429C3.38 1.533 4.871.997 6.752.997h3.691c1.882 0 3.372.536 4.472 1.607 1.1 1.071 1.65 2.547 1.65 4.429v2.779c0 2.663-1.201 4.342-3.604 5.037 2.403.665 3.604 2.358 3.604 5.079v2.953c0 1.881-.55 3.358-1.65 4.429-1.1 1.071-2.59 1.607-4.472 1.607H6.752c-1.881 0-3.372-.536-4.472-1.607-1.1-1.071-1.65-2.548-1.65-4.429v-1.954c0-.347.159-.521.478-.521h1.259c.289 0 .434.174.434.521v1.911c0 2.778 1.375 4.168 4.125 4.168h3.343c2.75 0 4.125-1.39 4.125-4.168v-2.866c0-2.779-1.375-4.168-4.125-4.168H7.664c-.319 0-.478-.16-.478-.478v-.955c0-.319.159-.478.478-.478zm18.378 13.07h3.691c1.331 0 2.345-.369 3.039-1.108.695-.738 1.043-1.801 1.043-3.191v-4.168c0-1.361-.348-2.41-1.043-3.148-.694-.738-1.708-1.108-3.039-1.108h-7.772v8.424c0 1.39.347 2.453 1.042 3.191.694.739 1.708 1.108 3.039 1.108zm3.865 1.954h-4.038c-1.882 0-3.373-.551-4.473-1.651-1.1-1.1-1.65-2.605-1.65-4.515V7.163c0-1.91.55-3.415 1.65-4.516 1.1-1.099 2.591-1.65 4.473-1.65h8.249c.319 0 .478.16.478.478v1.042c0 .29-.159.435-.478.435h-8.076c-1.331 0-2.345.368-3.039 1.107-.695.738-1.042 1.802-1.042 3.191v5.037h7.946c1.881 0 3.372.55 4.472 1.65 1.1 1.1 1.65 2.59 1.65 4.472v4.342c0 1.91-.55 3.415-1.65 4.515-1.1 1.1-2.591 1.651-4.472 1.651zm15.859-1.954h3.995c1.332 0 2.345-.369 3.04-1.108.694-.738 1.042-1.801 1.042-3.191V7.25c0-1.389-.348-2.453-1.042-3.191-.695-.739-1.708-1.107-3.04-1.107h-3.995c-1.331 0-2.344.368-3.039 1.107-.695.738-1.042 1.802-1.042 3.191v15.414c0 1.39.347 2.453 1.042 3.191.695.739 1.708 1.108 3.039 1.108zm4.169 1.954h-4.342c-1.882 0-3.372-.551-4.473-1.651-1.1-1.1-1.649-2.605-1.649-4.515V7.163c0-1.91.549-3.415 1.649-4.516 1.101-1.099 2.591-1.65 4.473-1.65h4.342c1.881 0 3.365.551 4.45 1.65 1.086 1.101 1.629 2.606 1.629 4.516v15.588c0 1.91-.543 3.415-1.629 4.515-1.085 1.1-2.569 1.651-4.45 1.651zM84.542 2.075a.744.744 0 1 1 1.332-.666l1.301 2.593a.742.742 0 0 1-.407 1.077l-2.481 1.066a.747.747 0 0 1-.584-1.373l.911-.391c-1.86-.688-5.181-1.663-9.056-1.651-5.681.017-10.561 2.314-10.575 2.321a.747.747 0 0 1-.624-1.355c.014-.007 5.178-2.438 11.199-2.457 3.972-.011 7.403.96 9.411 1.685l-.427-.849z" class="fil1"></path></g></svg>