<svg xmlns="http://www.w3.org/2000/svg" xml:space="preserve" width="1200" height="1200" style="shape-rendering:geometricPrecision;text-rendering:geometricPrecision;image-rendering:optimizeQuality;fill-rule:evenodd;clip-rule:evenodd"><defs><style>.str490{stroke:#727271;stroke-width:.288;stroke-miterlimit:22.9256}.fil0,.fil2{fill:none}.fil2{fill-rule:nonzero}.fil1,.fil3{fill:#727271}.fil1{fill-rule:nonzero}</style></defs><g id="Layer_x0020_1"><g id="_1962509059472"><path d="M20.001 73.548H93.17v278.144H20.001zM577.848 73.548h73.169v278.144h-73.169z" class="fil0" style="stroke:#727271;stroke-width:.703;stroke-miterlimit:22.9256"></path><path d="M93.334 94.262h484.509v6.374H93.334z" class="fil0" style="stroke:#727271;stroke-width:.175;stroke-miterlimit:22.9256"></path><path d="M96.814 94.263V76.978c0-.285.234-.519.519-.519h6.569a.52.52 0 0 1 .519.519v17.285M111.967 94.263V76.978c0-.285.234-.519.519-.519h6.569a.52.52 0 0 1 .519.519v17.285M127.12 94.263V76.978a.52.52 0 0 1 .519-.519h6.569a.52.52 0 0 1 .519.519v17.285M142.273 94.263V76.978a.52.52 0 0 1 .519-.519h6.569a.52.52 0 0 1 .519.519v17.285M157.425 94.263V76.978c0-.285.234-.519.519-.519h6.569a.52.52 0 0 1 .519.519v17.285M172.578 94.263V76.978c0-.285.234-.519.519-.519h6.569a.52.52 0 0 1 .519.519v17.285M187.731 94.263V76.978c0-.285.234-.519.519-.519h6.57a.52.52 0 0 1 .518.519v17.285M202.884 94.263V76.978c0-.285.234-.519.519-.519h6.569a.52.52 0 0 1 .519.519v17.285M218.037 94.263V76.978c0-.285.234-.519.519-.519h6.569a.52.52 0 0 1 .519.519v17.285M233.19 94.263V76.978c0-.285.234-.519.519-.519h6.569a.52.52 0 0 1 .519.519v17.285M248.343 94.263V76.978a.52.52 0 0 1 .519-.519h6.569c.285 0 .519.234.519.519v17.285M263.496 94.263V76.978a.52.52 0 0 1 .519-.519h6.569c.285 0 .519.234.519.519v17.285M278.648 94.263V76.978c0-.285.234-.519.519-.519h6.57a.52.52 0 0 1 .519.519v17.285M293.801 94.263V76.978c0-.285.234-.519.519-.519h6.57c.285 0 .519.234.519.519v17.285M308.954 94.263V76.978c0-.285.234-.519.519-.519h6.57c.285 0 .519.234.519.519v17.285M324.107 94.263V76.978c0-.285.234-.519.519-.519h6.569a.52.52 0 0 1 .519.519v17.285M339.26 94.263V76.978a.52.52 0 0 1 .519-.519h6.57c.285 0 .519.234.519.519v17.285M354.413 94.263V76.978a.52.52 0 0 1 .519-.519h6.57c.285 0 .519.234.519.519v17.285M369.566 94.263V76.978c0-.285.234-.519.519-.519h6.569a.52.52 0 0 1 .519.519v17.285M384.719 94.263V76.978a.52.52 0 0 1 .519-.519h6.57c.285 0 .519.234.519.519v17.285M399.872 94.263V76.978a.52.52 0 0 1 .519-.519h6.569a.52.52 0 0 1 .519.519v17.285M415.025 94.263V76.978c0-.285.234-.519.519-.519h6.569a.52.52 0 0 1 .519.519v17.285M430.178 94.263V76.978a.52.52 0 0 1 .518-.519h6.57c.285 0 .519.234.519.519v17.285M445.331 94.263V76.978a.52.52 0 0 1 .519-.519h6.569c.285 0 .519.234.519.519v17.285M460.484 94.263V76.978a.52.52 0 0 1 .519-.519h6.569c.285 0 .519.234.519.519v17.285M475.637 94.263V76.978a.52.52 0 0 1 .518-.519h6.57c.285 0 .519.234.519.519v17.285M490.789 94.263V76.978c0-.285.234-.519.519-.519h6.57c.285 0 .519.234.519.519v17.285M505.943 94.263V76.978a.52.52 0 0 1 .519-.519h6.569c.285 0 .519.234.519.519v17.285M521.095 94.263V76.978a.52.52 0 0 1 .519-.519h6.569c.285 0 .519.234.519.519v17.285M536.248 94.263V76.978a.52.52 0 0 1 .519-.519h6.569a.52.52 0 0 1 .519.519v17.285M551.401 94.263V76.978a.52.52 0 0 1 .519-.519h6.569c.285 0 .519.234.519.519v17.285M566.554 94.263V76.978a.52.52 0 0 1 .519-.519h6.569c.285 0 .519.234.519.519v17.285M96.814 100.636v17.284c0 .285.234.519.519.519h6.569a.52.52 0 0 0 .519-.519v-17.284M111.967 100.636v17.285a.52.52 0 0 0 .519.518h6.569a.52.52 0 0 0 .519-.518v-17.285M127.12 100.636v17.285a.52.52 0 0 0 .519.518h6.569a.52.52 0 0 0 .519-.518v-17.285M142.273 100.636v17.285a.52.52 0 0 0 .519.518h6.569a.52.52 0 0 0 .519-.518v-17.285M157.425 100.636v17.285a.52.52 0 0 0 .519.518h6.569a.52.52 0 0 0 .519-.518v-17.285M172.578 100.636v17.285a.52.52 0 0 0 .519.518h6.569a.52.52 0 0 0 .519-.518v-17.285M187.731 100.636v17.285a.52.52 0 0 0 .519.518h6.57a.52.52 0 0 0 .518-.518v-17.285M202.884 100.636v17.285a.52.52 0 0 0 .519.518h6.569a.52.52 0 0 0 .519-.518v-17.285M218.037 100.636v17.285a.52.52 0 0 0 .519.518h6.569a.52.52 0 0 0 .519-.518v-17.285M233.19 100.636v17.285a.52.52 0 0 0 .519.518h6.569a.52.52 0 0 0 .519-.518v-17.285M248.343 100.636v17.285a.52.52 0 0 0 .519.518h6.569a.52.52 0 0 0 .519-.518v-17.285M263.496 100.636v17.285a.52.52 0 0 0 .519.518h6.569a.52.52 0 0 0 .519-.518v-17.285M278.648 100.636v17.285a.52.52 0 0 0 .519.518h6.57a.52.52 0 0 0 .519-.518v-17.285M293.801 100.636v17.285a.52.52 0 0 0 .519.518h6.57a.52.52 0 0 0 .519-.518v-17.285M308.954 100.636v17.285a.52.52 0 0 0 .519.518h6.57a.52.52 0 0 0 .519-.518v-17.285M324.107 100.636v17.285a.52.52 0 0 0 .519.518h6.569a.52.52 0 0 0 .519-.518v-17.285M339.26 100.636v17.285a.52.52 0 0 0 .519.518h6.57a.52.52 0 0 0 .519-.518v-17.285M354.413 100.636v17.285a.52.52 0 0 0 .519.518h6.57a.52.52 0 0 0 .519-.518v-17.285M369.566 100.636v17.285a.52.52 0 0 0 .519.518h6.569a.52.52 0 0 0 .519-.518v-17.285M384.719 100.636v17.285a.52.52 0 0 0 .519.518h6.57a.52.52 0 0 0 .519-.518v-17.285M399.872 100.636v17.285a.52.52 0 0 0 .519.518h6.569a.52.52 0 0 0 .519-.518v-17.285M415.025 100.636v17.285a.52.52 0 0 0 .519.518h6.569a.52.52 0 0 0 .519-.518v-17.285M430.178 100.636v17.285a.52.52 0 0 0 .518.518h6.57a.52.52 0 0 0 .519-.518v-17.285M445.331 100.636v17.285a.52.52 0 0 0 .519.518h6.569a.52.52 0 0 0 .519-.518v-17.285M460.484 100.636v17.285a.52.52 0 0 0 .519.518h6.569a.52.52 0 0 0 .519-.518v-17.285M475.637 100.636v17.285a.52.52 0 0 0 .518.518h6.57a.52.52 0 0 0 .519-.518v-17.285M490.789 100.636v17.285a.52.52 0 0 0 .519.518h6.57a.52.52 0 0 0 .519-.518v-17.285M505.943 100.636v17.285a.52.52 0 0 0 .519.518h6.569a.52.52 0 0 0 .519-.518v-17.285M521.095 100.636v17.285a.52.52 0 0 0 .519.518h6.569a.52.52 0 0 0 .519-.518v-17.285M536.248 100.636v17.285a.52.52 0 0 0 .519.518h6.569a.52.52 0 0 0 .519-.518v-17.285M551.401 100.636v17.285a.52.52 0 0 0 .519.518h6.569a.52.52 0 0 0 .519-.518v-17.285M566.554 100.636v17.284a.52.52 0 0 0 .519.519h6.569a.521.521 0 0 0 .519-.519v-17.284M93.334 139.275h484.509v6.374H93.334zM96.814 139.274V121.99c0-.285.234-.519.519-.519h6.569a.52.52 0 0 1 .519.519v17.284M111.967 139.275V121.99c0-.285.234-.519.519-.519h6.569a.52.52 0 0 1 .519.519v17.285M127.12 139.275V121.99a.52.52 0 0 1 .519-.519h6.569a.52.52 0 0 1 .519.519v17.285M142.273 139.275V121.99a.52.52 0 0 1 .519-.519h6.569a.52.52 0 0 1 .519.519v17.285M157.425 139.275V121.99c0-.285.234-.519.519-.519h6.569a.52.52 0 0 1 .519.519v17.285M172.578 139.275V121.99c0-.285.234-.519.519-.519h6.569a.52.52 0 0 1 .519.519v17.285M187.731 139.275V121.99c0-.285.234-.519.519-.519h6.57a.52.52 0 0 1 .518.519v17.285M202.884 139.275V121.99c0-.285.234-.519.519-.519h6.569a.52.52 0 0 1 .519.519v17.285M218.037 139.275V121.99c0-.285.234-.519.519-.519h6.569a.52.52 0 0 1 .519.519v17.285M233.19 139.275V121.99c0-.285.234-.519.519-.519h6.569a.52.52 0 0 1 .519.519v17.285M248.343 139.275V121.99a.52.52 0 0 1 .519-.519h6.569c.285 0 .519.234.519.519v17.285M263.496 139.275V121.99a.52.52 0 0 1 .519-.519h6.569c.285 0 .519.234.519.519v17.285M278.648 139.275V121.99c0-.285.234-.519.519-.519h6.57a.52.52 0 0 1 .519.519v17.285M293.801 139.275V121.99c0-.285.234-.519.519-.519h6.57c.285 0 .519.234.519.519v17.285M308.954 139.275V121.99c0-.285.234-.519.519-.519h6.57c.285 0 .519.234.519.519v17.285M324.107 139.275V121.99c0-.285.234-.519.519-.519h6.569a.52.52 0 0 1 .519.519v17.285M339.26 139.275V121.99a.52.52 0 0 1 .519-.519h6.57c.285 0 .519.234.519.519v17.285M354.413 139.275V121.99a.52.52 0 0 1 .519-.519h6.57c.285 0 .519.234.519.519v17.285M369.566 139.275V121.99c0-.285.234-.519.519-.519h6.569a.52.52 0 0 1 .519.519v17.285M384.719 139.275V121.99a.52.52 0 0 1 .519-.519h6.57c.285 0 .519.234.519.519v17.285M399.872 139.275V121.99a.52.52 0 0 1 .519-.519h6.569a.52.52 0 0 1 .519.519v17.285M415.025 139.275V121.99c0-.285.234-.519.519-.519h6.569a.52.52 0 0 1 .519.519v17.285M430.178 139.275V121.99a.52.52 0 0 1 .518-.519h6.57c.285 0 .519.234.519.519v17.285M445.331 139.275V121.99a.52.52 0 0 1 .519-.519h6.569c.285 0 .519.234.519.519v17.285M460.484 139.275V121.99a.52.52 0 0 1 .519-.519h6.569c.285 0 .519.234.519.519v17.285M475.637 139.275V121.99a.52.52 0 0 1 .518-.519h6.57c.285 0 .519.234.519.519v17.285M490.789 139.275V121.99c0-.285.234-.519.519-.519h6.57c.285 0 .519.234.519.519v17.285M505.943 139.275V121.99a.52.52 0 0 1 .519-.519h6.569c.285 0 .519.234.519.519v17.285M521.095 139.275V121.99a.52.52 0 0 1 .519-.519h6.569c.285 0 .519.234.519.519v17.285M536.248 139.275V121.99a.52.52 0 0 1 .519-.519h6.569a.52.52 0 0 1 .519.519v17.285M551.401 139.275V121.99a.52.52 0 0 1 .519-.519h6.569c.285 0 .519.234.519.519v17.285M566.554 139.274V121.99a.52.52 0 0 1 .519-.519h6.569c.285 0 .519.234.519.519v17.284" class="fil0" style="stroke:#727271;stroke-width:.175;stroke-miterlimit:22.9256"></path><path d="M96.814 145.648v17.284a.52.52 0 0 0 .519.519h6.569a.52.52 0 0 0 .519-.519v-17.284M111.967 145.648v17.284a.52.52 0 0 0 .519.519h6.569a.52.52 0 0 0 .519-.519v-17.284M127.12 145.648v17.284a.52.52 0 0 0 .519.519h6.569a.52.52 0 0 0 .519-.519v-17.284M142.273 145.648v17.284a.52.52 0 0 0 .519.519h6.569a.52.52 0 0 0 .519-.519v-17.284M157.425 145.648v17.284a.52.52 0 0 0 .519.519h6.569a.52.52 0 0 0 .519-.519v-17.284M172.578 145.648v17.284a.52.52 0 0 0 .519.519h6.569a.52.52 0 0 0 .519-.519v-17.284M187.731 145.648v17.284a.52.52 0 0 0 .519.519h6.57a.52.52 0 0 0 .518-.519v-17.284M202.884 145.648v17.284a.52.52 0 0 0 .519.519h6.569a.52.52 0 0 0 .519-.519v-17.284M218.037 145.648v17.284a.52.52 0 0 0 .519.519h6.569a.52.52 0 0 0 .519-.519v-17.284M233.19 145.648v17.284a.52.52 0 0 0 .519.519h6.569a.52.52 0 0 0 .519-.519v-17.284M248.343 145.648v17.284a.52.52 0 0 0 .519.519h6.569a.52.52 0 0 0 .519-.519v-17.284M263.496 145.648v17.284a.52.52 0 0 0 .519.519h6.569a.52.52 0 0 0 .519-.519v-17.284M278.648 145.648v17.284a.52.52 0 0 0 .519.519h6.57a.52.52 0 0 0 .519-.519v-17.284M293.801 145.648v17.284a.52.52 0 0 0 .519.519h6.57a.52.52 0 0 0 .519-.519v-17.284M308.954 145.648v17.284a.52.52 0 0 0 .519.519h6.57a.52.52 0 0 0 .519-.519v-17.284M324.107 145.648v17.284a.52.52 0 0 0 .519.519h6.569a.52.52 0 0 0 .519-.519v-17.284M339.26 145.648v17.284a.52.52 0 0 0 .519.519h6.57a.52.52 0 0 0 .519-.519v-17.284M354.413 145.648v17.284a.52.52 0 0 0 .519.519h6.57a.52.52 0 0 0 .519-.519v-17.284M369.566 145.648v17.284a.52.52 0 0 0 .519.519h6.569a.52.52 0 0 0 .519-.519v-17.284M384.719 145.648v17.284a.52.52 0 0 0 .519.519h6.57a.52.52 0 0 0 .519-.519v-17.284M399.872 145.648v17.284a.52.52 0 0 0 .519.519h6.569a.52.52 0 0 0 .519-.519v-17.284M415.025 145.648v17.284a.52.52 0 0 0 .519.519h6.569a.52.52 0 0 0 .519-.519v-17.284M430.178 145.648v17.284a.52.52 0 0 0 .518.519h6.57a.52.52 0 0 0 .519-.519v-17.284M445.331 145.648v17.284a.52.52 0 0 0 .519.519h6.569a.52.52 0 0 0 .519-.519v-17.284M460.484 145.648v17.284a.52.52 0 0 0 .519.519h6.569a.52.52 0 0 0 .519-.519v-17.284M475.637 145.648v17.284a.52.52 0 0 0 .518.519h6.57a.52.52 0 0 0 .519-.519v-17.284M490.789 145.648v17.284a.52.52 0 0 0 .519.519h6.57a.52.52 0 0 0 .519-.519v-17.284M505.943 145.648v17.284a.52.52 0 0 0 .519.519h6.569a.52.52 0 0 0 .519-.519v-17.284M521.095 145.648v17.284a.52.52 0 0 0 .519.519h6.569a.52.52 0 0 0 .519-.519v-17.284M536.248 145.648v17.284a.52.52 0 0 0 .519.519h6.569a.52.52 0 0 0 .519-.519v-17.284M551.401 145.648v17.284a.52.52 0 0 0 .519.519h6.569a.52.52 0 0 0 .519-.519v-17.284M566.554 145.648v17.284a.52.52 0 0 0 .519.519h6.569a.52.52 0 0 0 .519-.519v-17.284M93.334 184.214h484.509v6.374H93.334zM96.814 184.213v-17.284c0-.285.234-.519.519-.519h6.569a.52.52 0 0 1 .519.519v17.284M111.967 184.214v-17.285c0-.285.234-.519.519-.519h6.569a.52.52 0 0 1 .519.519v17.285M127.12 184.214v-17.285a.52.52 0 0 1 .519-.519h6.569a.52.52 0 0 1 .519.519v17.285M142.273 184.214v-17.285a.52.52 0 0 1 .519-.519h6.569a.52.52 0 0 1 .519.519v17.285M157.425 184.214v-17.285c0-.285.234-.519.519-.519h6.569a.52.52 0 0 1 .519.519v17.285M172.578 184.214v-17.285c0-.285.234-.519.519-.519h6.569a.52.52 0 0 1 .519.519v17.285M187.731 184.214v-17.285c0-.285.234-.519.519-.519h6.57a.52.52 0 0 1 .518.519v17.285M202.884 184.214v-17.285c0-.285.234-.519.519-.519h6.569a.52.52 0 0 1 .519.519v17.285M218.037 184.214v-17.285c0-.285.234-.519.519-.519h6.569a.52.52 0 0 1 .519.519v17.285M233.19 184.214v-17.285c0-.285.234-.519.519-.519h6.569a.52.52 0 0 1 .519.519v17.285M248.343 184.214v-17.285a.52.52 0 0 1 .519-.519h6.569c.285 0 .519.234.519.519v17.285M263.496 184.214v-17.285a.52.52 0 0 1 .519-.519h6.569c.285 0 .519.234.519.519v17.285M278.648 184.214v-17.285c0-.285.234-.519.519-.519h6.57a.52.52 0 0 1 .519.519v17.285M293.801 184.214v-17.285c0-.285.234-.519.519-.519h6.57c.285 0 .519.234.519.519v17.285M308.954 184.214v-17.285c0-.285.234-.519.519-.519h6.57c.285 0 .519.234.519.519v17.285M324.107 184.214v-17.285c0-.285.234-.519.519-.519h6.569a.52.52 0 0 1 .519.519v17.285M339.26 184.214v-17.285a.52.52 0 0 1 .519-.519h6.57c.285 0 .519.234.519.519v17.285M354.413 184.214v-17.285a.52.52 0 0 1 .519-.519h6.57c.285 0 .519.234.519.519v17.285M369.566 184.214v-17.285c0-.285.234-.519.519-.519h6.569a.52.52 0 0 1 .519.519v17.285M384.719 184.214v-17.285a.52.52 0 0 1 .519-.519h6.57c.285 0 .519.234.519.519v17.285M399.872 184.214v-17.285a.52.52 0 0 1 .519-.519h6.569a.52.52 0 0 1 .519.519v17.285M415.025 184.214v-17.285c0-.285.234-.519.519-.519h6.569a.52.52 0 0 1 .519.519v17.285M430.178 184.214v-17.285a.52.52 0 0 1 .518-.519h6.57c.285 0 .519.234.519.519v17.285M445.331 184.214v-17.285a.52.52 0 0 1 .519-.519h6.569c.285 0 .519.234.519.519v17.285M460.484 184.214v-17.285a.52.52 0 0 1 .519-.519h6.569c.285 0 .519.234.519.519v17.285M475.637 184.214v-17.285a.52.52 0 0 1 .518-.519h6.57c.285 0 .519.234.519.519v17.285M490.789 184.214v-17.285c0-.285.234-.519.519-.519h6.57c.285 0 .519.234.519.519v17.285M505.943 184.214v-17.285a.52.52 0 0 1 .519-.519h6.569c.285 0 .519.234.519.519v17.285M521.095 184.214v-17.285a.52.52 0 0 1 .519-.519h6.569c.285 0 .519.234.519.519v17.285M536.248 184.214v-17.285a.52.52 0 0 1 .519-.519h6.569a.52.52 0 0 1 .519.519v17.285M551.401 184.214v-17.285a.52.52 0 0 1 .519-.519h6.569c.285 0 .519.234.519.519v17.285M566.554 184.213v-17.284a.52.52 0 0 1 .519-.519h6.569c.285 0 .519.234.519.519v17.284" class="fil0" style="stroke:#727271;stroke-width:.175;stroke-miterlimit:22.9256"></path><path d="M96.814 190.587v17.284a.52.52 0 0 0 .519.519h6.569a.52.52 0 0 0 .519-.519v-17.284M111.967 190.588v17.283c0 .285.234.519.519.519h6.569a.52.52 0 0 0 .519-.519v-17.283M127.12 190.588v17.283a.52.52 0 0 0 .519.519h6.569a.52.52 0 0 0 .519-.519v-17.283M142.273 190.588v17.283a.52.52 0 0 0 .519.519h6.569a.52.52 0 0 0 .519-.519v-17.283M157.425 190.588v17.283c0 .285.234.519.519.519h6.569a.52.52 0 0 0 .519-.519v-17.283M172.578 190.588v17.283c0 .285.234.519.519.519h6.569a.52.52 0 0 0 .519-.519v-17.283M187.731 190.588v17.283c0 .285.234.519.519.519h6.57a.52.52 0 0 0 .518-.519v-17.283M202.884 190.588v17.283c0 .285.234.519.519.519h6.569a.52.52 0 0 0 .519-.519v-17.283M218.037 190.588v17.283c0 .285.234.519.519.519h6.569a.52.52 0 0 0 .519-.519v-17.283M233.19 190.588v17.283c0 .285.234.519.519.519h6.569a.52.52 0 0 0 .519-.519v-17.283M248.343 190.588v17.283a.52.52 0 0 0 .519.519h6.569a.521.521 0 0 0 .519-.519v-17.283M263.496 190.588v17.283a.52.52 0 0 0 .519.519h6.569a.521.521 0 0 0 .519-.519v-17.283M278.648 190.588v17.283c0 .285.234.519.519.519h6.57a.52.52 0 0 0 .519-.519v-17.283M293.801 190.588v17.283c0 .285.234.519.519.519h6.57a.521.521 0 0 0 .519-.519v-17.283M308.954 190.588v17.283c0 .285.234.519.519.519h6.57a.521.521 0 0 0 .519-.519v-17.283M324.107 190.588v17.283c0 .285.234.519.519.519h6.569a.52.52 0 0 0 .519-.519v-17.283M339.26 190.588v17.283a.52.52 0 0 0 .519.519h6.57a.521.521 0 0 0 .519-.519v-17.283M354.413 190.588v17.283a.52.52 0 0 0 .519.519h6.57a.521.521 0 0 0 .519-.519v-17.283M369.566 190.588v17.283c0 .285.234.519.519.519h6.569a.52.52 0 0 0 .519-.519v-17.283M384.719 190.588v17.283a.52.52 0 0 0 .519.519h6.57a.521.521 0 0 0 .519-.519v-17.283M399.872 190.588v17.283a.52.52 0 0 0 .519.519h6.569a.52.52 0 0 0 .519-.519v-17.283M415.025 190.588v17.283c0 .285.234.519.519.519h6.569a.52.52 0 0 0 .519-.519v-17.283M430.178 190.588v17.283a.52.52 0 0 0 .518.519h6.57a.521.521 0 0 0 .519-.519v-17.283M445.331 190.588v17.283a.52.52 0 0 0 .519.519h6.569a.521.521 0 0 0 .519-.519v-17.283M460.484 190.588v17.283a.52.52 0 0 0 .519.519h6.569a.521.521 0 0 0 .519-.519v-17.283M475.637 190.588v17.283a.52.52 0 0 0 .518.519h6.57a.521.521 0 0 0 .519-.519v-17.283M490.789 190.588v17.283c0 .285.234.519.519.519h6.57a.521.521 0 0 0 .519-.519v-17.283M505.943 190.588v17.283a.52.52 0 0 0 .519.519h6.569a.521.521 0 0 0 .519-.519v-17.283M521.095 190.588v17.283a.52.52 0 0 0 .519.519h6.569a.521.521 0 0 0 .519-.519v-17.283M536.248 190.588v17.283a.52.52 0 0 0 .519.519h6.569a.52.52 0 0 0 .519-.519v-17.283M551.401 190.588v17.283a.52.52 0 0 0 .519.519h6.569a.521.521 0 0 0 .519-.519v-17.283M566.554 190.587v17.284a.52.52 0 0 0 .519.519h6.569a.52.52 0 0 0 .519-.519v-17.284M93.334 234.58h484.509v6.374H93.334zM96.814 234.58v-17.284a.52.52 0 0 1 .519-.519h6.569a.52.52 0 0 1 .519.519v17.284M111.967 234.58v-17.284a.52.52 0 0 1 .519-.519h6.569a.52.52 0 0 1 .519.519v17.284M127.12 234.58v-17.284a.52.52 0 0 1 .519-.519h6.569a.52.52 0 0 1 .519.519v17.284M142.273 234.58v-17.284a.52.52 0 0 1 .519-.519h6.569a.52.52 0 0 1 .519.519v17.284M157.425 234.58v-17.284a.52.52 0 0 1 .519-.519h6.569a.52.52 0 0 1 .519.519v17.284M172.578 234.58v-17.284a.52.52 0 0 1 .519-.519h6.569a.52.52 0 0 1 .519.519v17.284M187.731 234.58v-17.284a.52.52 0 0 1 .519-.519h6.57a.52.52 0 0 1 .518.519v17.284M202.884 234.58v-17.284a.52.52 0 0 1 .519-.519h6.569a.52.52 0 0 1 .519.519v17.284M218.037 234.58v-17.284a.52.52 0 0 1 .519-.519h6.569a.52.52 0 0 1 .519.519v17.284M233.19 234.58v-17.284a.52.52 0 0 1 .519-.519h6.569a.52.52 0 0 1 .519.519v17.284M248.343 234.58v-17.284a.52.52 0 0 1 .519-.519h6.569a.52.52 0 0 1 .519.519v17.284M263.496 234.58v-17.284a.52.52 0 0 1 .519-.519h6.569a.52.52 0 0 1 .519.519v17.284M278.648 234.58v-17.284a.52.52 0 0 1 .519-.519h6.57a.52.52 0 0 1 .519.519v17.284M293.801 234.58v-17.284a.52.52 0 0 1 .519-.519h6.57a.52.52 0 0 1 .519.519v17.284M308.954 234.58v-17.284a.52.52 0 0 1 .519-.519h6.57a.52.52 0 0 1 .519.519v17.284M324.107 234.58v-17.284a.52.52 0 0 1 .519-.519h6.569a.52.52 0 0 1 .519.519v17.284M339.26 234.58v-17.284a.52.52 0 0 1 .519-.519h6.57a.52.52 0 0 1 .519.519v17.284M354.413 234.58v-17.284a.52.52 0 0 1 .519-.519h6.57a.52.52 0 0 1 .519.519v17.284M369.566 234.58v-17.284a.52.52 0 0 1 .519-.519h6.569a.52.52 0 0 1 .519.519v17.284M384.719 234.58v-17.284a.52.52 0 0 1 .519-.519h6.57a.52.52 0 0 1 .519.519v17.284M399.872 234.58v-17.284a.52.52 0 0 1 .519-.519h6.569a.52.52 0 0 1 .519.519v17.284M415.025 234.58v-17.284a.52.52 0 0 1 .519-.519h6.569a.52.52 0 0 1 .519.519v17.284M430.178 234.58v-17.284a.52.52 0 0 1 .518-.519h6.57a.52.52 0 0 1 .519.519v17.284M445.331 234.58v-17.284a.52.52 0 0 1 .519-.519h6.569a.52.52 0 0 1 .519.519v17.284M460.484 234.58v-17.284a.52.52 0 0 1 .519-.519h6.569a.52.52 0 0 1 .519.519v17.284M475.637 234.58v-17.284a.52.52 0 0 1 .518-.519h6.57a.52.52 0 0 1 .519.519v17.284M490.789 234.58v-17.284a.52.52 0 0 1 .519-.519h6.57a.52.52 0 0 1 .519.519v17.284M505.943 234.58v-17.284a.52.52 0 0 1 .519-.519h6.569a.52.52 0 0 1 .519.519v17.284M521.095 234.58v-17.284a.52.52 0 0 1 .519-.519h6.569a.52.52 0 0 1 .519.519v17.284M536.248 234.58v-17.284a.52.52 0 0 1 .519-.519h6.569a.52.52 0 0 1 .519.519v17.284M551.401 234.58v-17.284a.52.52 0 0 1 .519-.519h6.569a.52.52 0 0 1 .519.519v17.284M566.554 234.58v-17.284a.52.52 0 0 1 .519-.519h6.569a.52.52 0 0 1 .519.519v17.284M96.814 240.954v17.284c0 .285.234.519.519.519h6.569a.52.52 0 0 0 .519-.519v-17.284M111.967 240.954v17.283a.52.52 0 0 0 .519.519h6.569a.52.52 0 0 0 .519-.519v-17.283M127.12 240.954v17.283a.52.52 0 0 0 .519.519h6.569a.52.52 0 0 0 .519-.519v-17.283M142.273 240.954v17.283a.52.52 0 0 0 .519.519h6.569a.52.52 0 0 0 .519-.519v-17.283M157.425 240.954v17.283a.52.52 0 0 0 .519.519h6.569a.52.52 0 0 0 .519-.519v-17.283M172.578 240.954v17.283a.52.52 0 0 0 .519.519h6.569a.52.52 0 0 0 .519-.519v-17.283M187.731 240.954v17.283a.52.52 0 0 0 .519.519h6.57a.52.52 0 0 0 .518-.519v-17.283M202.884 240.954v17.283a.52.52 0 0 0 .519.519h6.569a.52.52 0 0 0 .519-.519v-17.283M218.037 240.954v17.283a.52.52 0 0 0 .519.519h6.569a.52.52 0 0 0 .519-.519v-17.283M233.19 240.954v17.283a.52.52 0 0 0 .519.519h6.569a.52.52 0 0 0 .519-.519v-17.283M248.343 240.954v17.283a.52.52 0 0 0 .519.519h6.569a.52.52 0 0 0 .519-.519v-17.283M263.496 240.954v17.283a.52.52 0 0 0 .519.519h6.569a.52.52 0 0 0 .519-.519v-17.283M278.648 240.954v17.283a.52.52 0 0 0 .519.519h6.57a.52.52 0 0 0 .519-.519v-17.283M293.801 240.954v17.283a.52.52 0 0 0 .519.519h6.57a.52.52 0 0 0 .519-.519v-17.283M308.954 240.954v17.283a.52.52 0 0 0 .519.519h6.57a.52.52 0 0 0 .519-.519v-17.283M324.107 240.954v17.283a.52.52 0 0 0 .519.519h6.569a.52.52 0 0 0 .519-.519v-17.283M339.26 240.954v17.283a.52.52 0 0 0 .519.519h6.57a.52.52 0 0 0 .519-.519v-17.283M354.413 240.954v17.283a.52.52 0 0 0 .519.519h6.57a.52.52 0 0 0 .519-.519v-17.283M369.566 240.954v17.283a.52.52 0 0 0 .519.519h6.569a.52.52 0 0 0 .519-.519v-17.283M384.719 240.954v17.283a.52.52 0 0 0 .519.519h6.57a.52.52 0 0 0 .519-.519v-17.283M399.872 240.954v17.283a.52.52 0 0 0 .519.519h6.569a.52.52 0 0 0 .519-.519v-17.283M415.025 240.954v17.283a.52.52 0 0 0 .519.519h6.569a.52.52 0 0 0 .519-.519v-17.283M430.178 240.954v17.283a.52.52 0 0 0 .518.519h6.57a.52.52 0 0 0 .519-.519v-17.283M445.331 240.954v17.283a.52.52 0 0 0 .519.519h6.569a.52.52 0 0 0 .519-.519v-17.283M460.484 240.954v17.283a.52.52 0 0 0 .519.519h6.569a.52.52 0 0 0 .519-.519v-17.283M475.637 240.954v17.283a.52.52 0 0 0 .518.519h6.57a.52.52 0 0 0 .519-.519v-17.283M490.789 240.954v17.283a.52.52 0 0 0 .519.519h6.57a.52.52 0 0 0 .519-.519v-17.283M505.943 240.954v17.283a.52.52 0 0 0 .519.519h6.569a.52.52 0 0 0 .519-.519v-17.283M521.095 240.954v17.283a.52.52 0 0 0 .519.519h6.569a.52.52 0 0 0 .519-.519v-17.283M536.248 240.954v17.283a.52.52 0 0 0 .519.519h6.569a.52.52 0 0 0 .519-.519v-17.283M551.401 240.954v17.283a.52.52 0 0 0 .519.519h6.569a.52.52 0 0 0 .519-.519v-17.283M566.554 240.954v17.284a.52.52 0 0 0 .519.519h6.569a.521.521 0 0 0 .519-.519v-17.284M93.334 279.592h484.509v6.374H93.334zM96.814 279.592v-17.284c0-.285.234-.519.519-.519h6.569a.52.52 0 0 1 .519.519v17.284M111.967 279.592v-17.284a.52.52 0 0 1 .519-.519h6.569a.52.52 0 0 1 .519.519v17.284M127.12 279.592v-17.284a.52.52 0 0 1 .519-.519h6.569a.52.52 0 0 1 .519.519v17.284M142.273 279.592v-17.284a.52.52 0 0 1 .519-.519h6.569a.52.52 0 0 1 .519.519v17.284M157.425 279.592v-17.284a.52.52 0 0 1 .519-.519h6.569a.52.52 0 0 1 .519.519v17.284M172.578 279.592v-17.284a.52.52 0 0 1 .519-.519h6.569a.52.52 0 0 1 .519.519v17.284M187.731 279.592v-17.284a.52.52 0 0 1 .519-.519h6.57a.52.52 0 0 1 .518.519v17.284M202.884 279.592v-17.284a.52.52 0 0 1 .519-.519h6.569a.52.52 0 0 1 .519.519v17.284M218.037 279.592v-17.284a.52.52 0 0 1 .519-.519h6.569a.52.52 0 0 1 .519.519v17.284M233.19 279.592v-17.284a.52.52 0 0 1 .519-.519h6.569a.52.52 0 0 1 .519.519v17.284M248.343 279.592v-17.284a.52.52 0 0 1 .519-.519h6.569a.52.52 0 0 1 .519.519v17.284M263.496 279.592v-17.284a.52.52 0 0 1 .519-.519h6.569a.52.52 0 0 1 .519.519v17.284M278.648 279.592v-17.284a.52.52 0 0 1 .519-.519h6.57a.52.52 0 0 1 .519.519v17.284M293.801 279.592v-17.284a.52.52 0 0 1 .519-.519h6.57a.52.52 0 0 1 .519.519v17.284M308.954 279.592v-17.284a.52.52 0 0 1 .519-.519h6.57a.52.52 0 0 1 .519.519v17.284M324.107 279.592v-17.284a.52.52 0 0 1 .519-.519h6.569a.52.52 0 0 1 .519.519v17.284M339.26 279.592v-17.284a.52.52 0 0 1 .519-.519h6.57a.52.52 0 0 1 .519.519v17.284M354.413 279.592v-17.284a.52.52 0 0 1 .519-.519h6.57a.52.52 0 0 1 .519.519v17.284M369.566 279.592v-17.284a.52.52 0 0 1 .519-.519h6.569a.52.52 0 0 1 .519.519v17.284M384.719 279.592v-17.284a.52.52 0 0 1 .519-.519h6.57a.52.52 0 0 1 .519.519v17.284M399.872 279.592v-17.284a.52.52 0 0 1 .519-.519h6.569a.52.52 0 0 1 .519.519v17.284M415.025 279.592v-17.284a.52.52 0 0 1 .519-.519h6.569a.52.52 0 0 1 .519.519v17.284M430.178 279.592v-17.284a.52.52 0 0 1 .518-.519h6.57a.52.52 0 0 1 .519.519v17.284M445.331 279.592v-17.284a.52.52 0 0 1 .519-.519h6.569a.52.52 0 0 1 .519.519v17.284M460.484 279.592v-17.284a.52.52 0 0 1 .519-.519h6.569a.52.52 0 0 1 .519.519v17.284M475.637 279.592v-17.284a.52.52 0 0 1 .518-.519h6.57a.52.52 0 0 1 .519.519v17.284M490.789 279.592v-17.284a.52.52 0 0 1 .519-.519h6.57a.52.52 0 0 1 .519.519v17.284M505.943 279.592v-17.284a.52.52 0 0 1 .519-.519h6.569a.52.52 0 0 1 .519.519v17.284M521.095 279.592v-17.284a.52.52 0 0 1 .519-.519h6.569a.52.52 0 0 1 .519.519v17.284M536.248 279.592v-17.284a.52.52 0 0 1 .519-.519h6.569a.52.52 0 0 1 .519.519v17.284M551.401 279.592v-17.284a.52.52 0 0 1 .519-.519h6.569a.52.52 0 0 1 .519.519v17.284M566.554 279.592v-17.284a.52.52 0 0 1 .519-.519h6.569c.285 0 .519.234.519.519v17.284" class="fil0" style="stroke:#727271;stroke-width:.175;stroke-miterlimit:22.9256"></path><path d="M96.814 285.965v17.285c0 .285.234.519.519.519h6.569a.52.52 0 0 0 .519-.519v-17.285M111.967 285.966v17.284c0 .285.234.519.519.519h6.569a.52.52 0 0 0 .519-.519v-17.284M127.12 285.966v17.284a.52.52 0 0 0 .519.519h6.569a.52.52 0 0 0 .519-.519v-17.284M142.273 285.966v17.284a.52.52 0 0 0 .519.519h6.569a.52.52 0 0 0 .519-.519v-17.284M157.425 285.966v17.284c0 .285.234.519.519.519h6.569a.52.52 0 0 0 .519-.519v-17.284M172.578 285.966v17.284c0 .285.234.519.519.519h6.569a.52.52 0 0 0 .519-.519v-17.284M187.731 285.966v17.284c0 .285.234.519.519.519h6.57a.52.52 0 0 0 .518-.519v-17.284M202.884 285.966v17.284c0 .285.234.519.519.519h6.569a.52.52 0 0 0 .519-.519v-17.284M218.037 285.966v17.284c0 .285.234.519.519.519h6.569a.52.52 0 0 0 .519-.519v-17.284M233.19 285.966v17.284c0 .285.234.519.519.519h6.569a.52.52 0 0 0 .519-.519v-17.284M248.343 285.966v17.284a.52.52 0 0 0 .519.519h6.569a.521.521 0 0 0 .519-.519v-17.284M263.496 285.966v17.284a.52.52 0 0 0 .519.519h6.569a.521.521 0 0 0 .519-.519v-17.284M278.648 285.966v17.284c0 .285.234.519.519.519h6.57a.52.52 0 0 0 .519-.519v-17.284M293.801 285.966v17.284c0 .285.234.519.519.519h6.57a.521.521 0 0 0 .519-.519v-17.284M308.954 285.966v17.284c0 .285.234.519.519.519h6.57a.521.521 0 0 0 .519-.519v-17.284M324.107 285.966v17.284c0 .285.234.519.519.519h6.569a.52.52 0 0 0 .519-.519v-17.284M339.26 285.966v17.284a.52.52 0 0 0 .519.519h6.57a.521.521 0 0 0 .519-.519v-17.284M354.413 285.966v17.284a.52.52 0 0 0 .519.519h6.57a.521.521 0 0 0 .519-.519v-17.284M369.566 285.966v17.284c0 .285.234.519.519.519h6.569a.52.52 0 0 0 .519-.519v-17.284M384.719 285.966v17.284a.52.52 0 0 0 .519.519h6.57a.521.521 0 0 0 .519-.519v-17.284M399.872 285.966v17.284a.52.52 0 0 0 .519.519h6.569a.52.52 0 0 0 .519-.519v-17.284M415.025 285.966v17.284c0 .285.234.519.519.519h6.569a.52.52 0 0 0 .519-.519v-17.284M430.178 285.966v17.284a.52.52 0 0 0 .518.519h6.57a.521.521 0 0 0 .519-.519v-17.284M445.331 285.966v17.284a.52.52 0 0 0 .519.519h6.569a.521.521 0 0 0 .519-.519v-17.284M460.484 285.966v17.284a.52.52 0 0 0 .519.519h6.569a.521.521 0 0 0 .519-.519v-17.284M475.637 285.966v17.284a.52.52 0 0 0 .518.519h6.57a.521.521 0 0 0 .519-.519v-17.284M490.789 285.966v17.284c0 .285.234.519.519.519h6.57a.521.521 0 0 0 .519-.519v-17.284M505.943 285.966v17.284a.52.52 0 0 0 .519.519h6.569a.521.521 0 0 0 .519-.519v-17.284M521.095 285.966v17.284a.52.52 0 0 0 .519.519h6.569a.521.521 0 0 0 .519-.519v-17.284M536.248 285.966v17.284a.52.52 0 0 0 .519.519h6.569a.52.52 0 0 0 .519-.519v-17.284M551.401 285.966v17.284a.52.52 0 0 0 .519.519h6.569a.521.521 0 0 0 .519-.519v-17.284M566.554 285.965v17.285a.52.52 0 0 0 .519.519h6.569a.521.521 0 0 0 .519-.519v-17.285M93.334 324.531h484.509v6.374H93.334zM96.814 324.531v-17.284c0-.285.234-.519.519-.519h6.569a.52.52 0 0 1 .519.519v17.284M111.967 324.531v-17.284c0-.285.234-.519.519-.519h6.569a.52.52 0 0 1 .519.519v17.284M127.12 324.531v-17.284a.52.52 0 0 1 .519-.519h6.569a.52.52 0 0 1 .519.519v17.284M142.273 324.531v-17.284a.52.52 0 0 1 .519-.519h6.569a.52.52 0 0 1 .519.519v17.284M157.425 324.531v-17.284c0-.285.234-.519.519-.519h6.569a.52.52 0 0 1 .519.519v17.284M172.578 324.531v-17.284c0-.285.234-.519.519-.519h6.569a.52.52 0 0 1 .519.519v17.284M187.731 324.531v-17.284c0-.285.234-.519.519-.519h6.57a.52.52 0 0 1 .518.519v17.284M202.884 324.531v-17.284c0-.285.234-.519.519-.519h6.569a.52.52 0 0 1 .519.519v17.284M218.037 324.531v-17.284c0-.285.234-.519.519-.519h6.569a.52.52 0 0 1 .519.519v17.284M233.19 324.531v-17.284c0-.285.234-.519.519-.519h6.569a.52.52 0 0 1 .519.519v17.284M248.343 324.531v-17.284a.52.52 0 0 1 .519-.519h6.569c.285 0 .519.234.519.519v17.284M263.496 324.531v-17.284a.52.52 0 0 1 .519-.519h6.569c.285 0 .519.234.519.519v17.284M278.648 324.531v-17.284c0-.285.234-.519.519-.519h6.57a.52.52 0 0 1 .519.519v17.284M293.801 324.531v-17.284c0-.285.234-.519.519-.519h6.57c.285 0 .519.234.519.519v17.284M308.954 324.531v-17.284c0-.285.234-.519.519-.519h6.57c.285 0 .519.234.519.519v17.284M324.107 324.531v-17.284c0-.285.234-.519.519-.519h6.569a.52.52 0 0 1 .519.519v17.284M339.26 324.531v-17.284a.52.52 0 0 1 .519-.519h6.57c.285 0 .519.234.519.519v17.284M354.413 324.531v-17.284a.52.52 0 0 1 .519-.519h6.57c.285 0 .519.234.519.519v17.284M369.566 324.531v-17.284c0-.285.234-.519.519-.519h6.569a.52.52 0 0 1 .519.519v17.284M384.719 324.531v-17.284a.52.52 0 0 1 .519-.519h6.57c.285 0 .519.234.519.519v17.284M399.872 324.531v-17.284a.52.52 0 0 1 .519-.519h6.569a.52.52 0 0 1 .519.519v17.284M415.025 324.531v-17.284c0-.285.234-.519.519-.519h6.569a.52.52 0 0 1 .519.519v17.284M430.178 324.531v-17.284a.52.52 0 0 1 .518-.519h6.57c.285 0 .519.234.519.519v17.284M445.331 324.531v-17.284a.52.52 0 0 1 .519-.519h6.569c.285 0 .519.234.519.519v17.284M460.484 324.531v-17.284a.52.52 0 0 1 .519-.519h6.569c.285 0 .519.234.519.519v17.284M475.637 324.531v-17.284a.52.52 0 0 1 .518-.519h6.57c.285 0 .519.234.519.519v17.284M490.789 324.531v-17.284c0-.285.234-.519.519-.519h6.57c.285 0 .519.234.519.519v17.284M505.943 324.531v-17.284a.52.52 0 0 1 .519-.519h6.569c.285 0 .519.234.519.519v17.284M521.095 324.531v-17.284a.52.52 0 0 1 .519-.519h6.569c.285 0 .519.234.519.519v17.284M536.248 324.531v-17.284a.52.52 0 0 1 .519-.519h6.569a.52.52 0 0 1 .519.519v17.284M551.401 324.531v-17.284a.52.52 0 0 1 .519-.519h6.569c.285 0 .519.234.519.519v17.284M566.554 324.531v-17.284a.52.52 0 0 1 .519-.519h6.569c.285 0 .519.234.519.519v17.284" class="fil0" style="stroke:#727271;stroke-width:.175;stroke-miterlimit:22.9256"></path><path d="M96.814 330.904v17.285c0 .285.234.519.519.519h6.569a.52.52 0 0 0 .519-.519v-17.285M111.967 330.904v17.285c0 .285.234.519.519.519h6.569a.52.52 0 0 0 .519-.519v-17.285M127.12 330.904v17.285a.52.52 0 0 0 .519.519h6.569a.52.52 0 0 0 .519-.519v-17.285M142.273 330.904v17.285a.52.52 0 0 0 .519.519h6.569a.52.52 0 0 0 .519-.519v-17.285M157.425 330.904v17.285c0 .285.234.519.519.519h6.569a.52.52 0 0 0 .519-.519v-17.285M172.578 330.904v17.285c0 .285.234.519.519.519h6.569a.52.52 0 0 0 .519-.519v-17.285M187.731 330.904v17.285c0 .285.234.519.519.519h6.57a.52.52 0 0 0 .518-.519v-17.285M202.884 330.904v17.285c0 .285.234.519.519.519h6.569a.52.52 0 0 0 .519-.519v-17.285M218.037 330.904v17.285c0 .285.234.519.519.519h6.569a.52.52 0 0 0 .519-.519v-17.285M233.19 330.904v17.285c0 .285.234.519.519.519h6.569a.52.52 0 0 0 .519-.519v-17.285M248.343 330.904v17.285a.52.52 0 0 0 .519.519h6.569a.521.521 0 0 0 .519-.519v-17.285M263.496 330.904v17.285a.52.52 0 0 0 .519.519h6.569a.521.521 0 0 0 .519-.519v-17.285M278.648 330.904v17.285c0 .285.234.519.519.519h6.57a.52.52 0 0 0 .519-.519v-17.285M293.801 330.904v17.285c0 .285.234.519.519.519h6.57a.521.521 0 0 0 .519-.519v-17.285M308.954 330.904v17.285c0 .285.234.519.519.519h6.57a.521.521 0 0 0 .519-.519v-17.285M324.107 330.904v17.285c0 .285.234.519.519.519h6.569a.52.52 0 0 0 .519-.519v-17.285M339.26 330.904v17.285a.52.52 0 0 0 .519.519h6.57a.521.521 0 0 0 .519-.519v-17.285M354.413 330.904v17.285a.52.52 0 0 0 .519.519h6.57a.521.521 0 0 0 .519-.519v-17.285M369.566 330.904v17.285c0 .285.234.519.519.519h6.569a.52.52 0 0 0 .519-.519v-17.285M384.719 330.904v17.285a.52.52 0 0 0 .519.519h6.57a.521.521 0 0 0 .519-.519v-17.285M399.872 330.904v17.285a.52.52 0 0 0 .519.519h6.569a.52.52 0 0 0 .519-.519v-17.285M415.025 330.904v17.285c0 .285.234.519.519.519h6.569a.52.52 0 0 0 .519-.519v-17.285M430.178 330.904v17.285a.52.52 0 0 0 .518.519h6.57a.521.521 0 0 0 .519-.519v-17.285M445.331 330.904v17.285a.52.52 0 0 0 .519.519h6.569a.521.521 0 0 0 .519-.519v-17.285M460.484 330.904v17.285a.52.52 0 0 0 .519.519h6.569a.521.521 0 0 0 .519-.519v-17.285M475.637 330.904v17.285a.52.52 0 0 0 .518.519h6.57a.521.521 0 0 0 .519-.519v-17.285M490.789 330.904v17.285c0 .285.234.519.519.519h6.57a.521.521 0 0 0 .519-.519v-17.285M505.943 330.904v17.285a.52.52 0 0 0 .519.519h6.569a.521.521 0 0 0 .519-.519v-17.285M521.095 330.904v17.285a.52.52 0 0 0 .519.519h6.569a.521.521 0 0 0 .519-.519v-17.285M536.248 330.904v17.285a.52.52 0 0 0 .519.519h6.569a.52.52 0 0 0 .519-.519v-17.285M551.401 330.904v17.285a.52.52 0 0 0 .519.519h6.569a.521.521 0 0 0 .519-.519v-17.285M566.554 330.904v17.285a.52.52 0 0 0 .519.519h6.569a.521.521 0 0 0 .519-.519v-17.285" class="fil0" style="stroke:#727271;stroke-width:.175;stroke-miterlimit:22.9256"></path></g><g id="_1964268659296"><path d="M577.846 591.007H93.17v-.176h484.676zM577.846 705.171H93.17v-.176h484.676z" class="fil1"></path><path d="M96.854 590.919v114.009M104.431 590.919v114.009M112.007 590.919v114.009M119.585 590.919v114.009M127.162 590.919v114.009M134.739 590.919v114.009M142.315 590.919v114.009M149.893 590.919v114.009M157.469 590.919v114.009M165.047 590.919v114.009M172.623 590.919v114.009M180.2 590.919v114.009M187.778 590.919v114.009M195.355 590.919v114.009M202.931 590.919v114.009M210.508 590.919v114.009M218.085 590.919v114.009M225.662 590.919v114.009M233.239 590.919v114.009M240.816 590.919v114.009M248.393 590.919v114.009M255.97 590.919v114.009M263.547 590.919v114.009M271.124 590.919v114.009M278.701 590.919v114.009M286.278 590.919v114.009M293.854 590.919v114.009M301.432 590.919v114.009M309.009 590.919v114.009M316.586 590.919v114.009M324.163 590.919v114.009M331.74 590.919v114.009M339.317 590.919v114.009M346.894 590.919v114.009M354.47 590.919v114.009M362.047 590.919v114.009M369.625 590.919v114.009M377.202 590.919v114.009M384.778 590.919v114.009M392.355 590.919v114.009M399.933 590.919v114.009M407.509 590.919v114.009M415.086 590.919v114.009M422.663 590.919v114.009M430.24 590.919v114.009M437.817 590.919v114.009M445.394 590.919v114.009M452.971 590.919v114.009M460.548 590.919v114.009M468.125 590.919v114.009M475.702 590.919v114.009M483.279 590.919v114.009M490.856 590.919v114.009M498.433 590.919v114.009M506.01 590.919v114.009M513.587 590.919v114.009M521.164 590.919v114.009M528.741 590.919v114.009M536.318 590.919v114.009M543.895 590.919v114.009M551.472 590.919v114.009M559.049 590.919v114.009M566.625 590.919v114.009M574.202 590.919v114.009" class="fil0" style="stroke:#727271;stroke-width:.175;stroke-miterlimit:22.9256"></path><path d="M20.001 585.212H93.17v126.099H20.001zM577.846 585.212h73.168v126.099h-73.168zM20.001 1078.711H93.17v45.666H20.001zM577.846 1078.711h73.168v45.666h-73.168z" class="fil0" style="stroke:#727271;stroke-width:.703;stroke-miterlimit:22.9256"></path><path d="M25.294 1124.377h62.582v2.075H25.294zM583.141 1124.377h62.583v2.075h-62.583z" class="fil0" style="stroke:#727271;stroke-width:.175;stroke-miterlimit:22.9256"></path><path d="M577.846 708.55H93.17v-.705h484.676zM577.846 1081.138H93.17v-.704h484.676zM647.084 1078.711v-367.4h.705v367.4zM23.08 1078.711v-367.4h.705v367.4z" class="fil1"></path></g><g id="_1962541471712"><path d="M904.969 585.211h271.918l3.113 3.114v122.986H901.856V588.325z" class="fil0" style="stroke:#727271;stroke-width:.703;stroke-miterlimit:22.9256"></path><path d="M1046.636 590.402h124.893l3.113 3.113v105.264l-3.113 3.114h-124.893l-3.113-3.114V593.515zM1039.89 711.311h2.075v367.399h-2.075z" class="fil0" style="stroke:#727271;stroke-width:.175;stroke-miterlimit:22.9256"></path><path d="M901.856 1078.71h278.097v42.552l-3.114 3.113H904.97l-3.114-3.113z" class="fil0" style="stroke:#727271;stroke-width:.703;stroke-miterlimit:22.9256"></path><path d="M910.159 1088.05h125.061l3.113 3.114v24.817l-3.113 3.114H910.159l-3.114-3.114v-24.817zM1046.636 1088.05h125.061l3.114 3.114v24.817l-3.114 3.114h-125.061l-3.113-3.114v-24.817zM923.131 609.083h115.202v77.839H923.131l-3.113-3.114v-71.612z" class="fil0" style="stroke:#727271;stroke-width:.175;stroke-miterlimit:22.9256"></path><path d="M910.25 590.402h124.892l3.114 3.113v105.264l-3.114 3.114H910.25l-3.113-3.114V593.515z" class="fil0" style="stroke:#727271;stroke-width:.175;stroke-miterlimit:22.9256"></path><path d="M934.755 591.969h2.075v109.924h-2.075zM961.039 591.969h2.075v109.924h-2.075zM987.322 591.969h2.076v109.924h-2.076zM1013.606 591.969h2.076v109.924h-2.076zM934.755 711.311h2.075v367.399h-2.075zM961.039 711.311h2.075v367.399h-2.075zM987.322 711.311h2.076v367.399h-2.076zM1013.606 711.311h2.076v367.399h-2.076z" class="fil0" style="stroke:#727271;stroke-width:.175;stroke-miterlimit:22.9256"></path><path d="M961.039 711.399H936.83v-.176h24.209l.088.088-.088.088zm0-.176h.088v.088l-.088-.088zm-.089 19.807v-19.719h.177v19.719l-.088.088-.089-.088zm.177 0v.088h-.088l.088-.088zm-24.297-.088h24.209v.176H936.83l-.088-.088.088-.088zm0 .176h-.088v-.088l.088.088zm.088-19.807v19.719h-.176v-19.719l.088-.088.088.088zm-.176 0v-.088h.088l-.088.088zM934.755 711.399h-24.209v-.176h24.209l.088.088-.088.088zm0-.176h.088v.088l-.088-.088zm-.089 19.807v-19.719h.177v19.719l-.088.088-.089-.088zm.177 0v.088h-.088l.088-.088zm-24.297-.088h24.209v.176h-24.209l-.088-.088.088-.088zm0 .176h-.088v-.088l.088.088zm.088-19.807v19.719h-.176v-19.719l.088-.088.088.088zm-.176 0v-.088h.088l-.088.088zM987.322 711.399h-24.208v-.176h24.208l.089.088-.089.088zm0-.176h.089v.088l-.089-.088zm-.088 19.807v-19.719h.177v19.719l-.089.088-.088-.088zm.177 0v.088h-.089l.089-.088zm-24.297-.088h24.208v.176h-24.208l-.088-.088.088-.088zm0 .176h-.088v-.088l.088.088zm.088-19.807v19.719h-.176v-19.719l.088-.088.088.088zm-.176 0v-.088h.088l-.088.088zM1013.606 711.399h-24.208v-.176h24.208l.089.088-.089.088zm0-.176h.089v.088l-.089-.088zm-.088 19.807v-19.719h.177v19.719l-.089.088-.088-.088zm.177 0v.088h-.089l.089-.088zm-24.297-.088h24.208v.176h-24.208l-.089-.088.089-.088zm0 .176h-.089v-.088l.089.088zm.088-19.807v19.719h-.177v-19.719l.089-.088.088.088zm-.177 0v-.088h.089l-.089.088zM1039.89 711.399h-24.208v-.176h24.208l.088.088-.088.088zm0-.176h.088v.088l-.088-.088zm-.089 19.807v-19.719h.177v19.719l-.088.088-.089-.088zm.177 0v.088h-.088l.088-.088zm-24.296-.088h24.208v.176h-24.208l-.089-.088.089-.088zm0 .176h-.089v-.088l.089.088zm.088-19.807v19.719h-.177v-19.719l.089-.088.088.088zm-.177 0v-.088h.089l-.089.088zM961.039 1059.079H936.83v-.176h24.209l.088.088-.088.088zm0-.176h.088v.088l-.088-.088zm-.089 19.807v-19.719h.177v19.719l-.088.088-.089-.088zm.177 0v.088h-.088l.088-.088zm-24.297-.088h24.209v.176H936.83l-.088-.088.088-.088zm0 .176h-.088v-.088l.088.088zm.088-19.807v19.719h-.176v-19.719l.088-.088.088.088zm-.176 0v-.088h.088l-.088.088zM934.755 1059.079h-24.209v-.176h24.209l.088.088-.088.088zm0-.176h.088v.088l-.088-.088zm-.089 19.807v-19.719h.177v19.719l-.088.088-.089-.088zm.177 0v.088h-.088l.088-.088zm-24.297-.088h24.209v.176h-24.209l-.088-.088.088-.088zm0 .176h-.088v-.088l.088.088zm.088-19.807v19.719h-.176v-19.719l.088-.088.088.088zm-.176 0v-.088h.088l-.088.088zM987.322 1059.079h-24.208v-.176h24.208l.089.088-.089.088zm0-.176h.089v.088l-.089-.088zm-.088 19.807v-19.719h.177v19.719l-.089.088-.088-.088zm.177 0v.088h-.089l.089-.088zm-24.297-.088h24.208v.176h-24.208l-.088-.088.088-.088zm0 .176h-.088v-.088l.088.088zm.088-19.807v19.719h-.176v-19.719l.088-.088.088.088zm-.176 0v-.088h.088l-.088.088zM1013.606 1059.079h-24.208v-.176h24.208l.089.088-.089.088zm0-.176h.089v.088l-.089-.088zm-.088 19.807v-19.719h.177v19.719l-.089.088-.088-.088zm.177 0v.088h-.089l.089-.088zm-24.297-.088h24.208v.176h-24.208l-.089-.088.089-.088zm0 .176h-.089v-.088l.089.088zm.088-19.807v19.719h-.177v-19.719l.089-.088.088.088zm-.177 0v-.088h.089l-.089.088zM1039.89 1059.079h-24.208v-.176h24.208l.088.088-.088.088zm0-.176h.088v.088l-.088-.088zm-.089 19.807v-19.719h.177v19.719l-.088.088-.089-.088zm.177 0v.088h-.088l.088-.088zm-24.296-.088h24.208v.176h-24.208l-.089-.088.089-.088zm0 .176h-.089v-.088l.089.088zm.088-19.807v19.719h-.177v-19.719l.089-.088.088.088zm-.177 0v-.088h.089l-.089.088z" class="fil1"></path><path d="M1158.725 609.083h-115.202v77.839h115.202l3.113-3.114v-71.612z" class="fil0" style="stroke:#727271;stroke-width:.175;stroke-miterlimit:22.9256"></path><path d="M1171.606 590.402h-124.892l-3.114 3.113v105.264l3.114 3.114h124.892l3.113-3.114V593.515z" class="fil0" style="stroke:#727271;stroke-width:.175;stroke-miterlimit:22.9256"></path><path d="M1147.101 591.969h-2.075v109.924h2.075zM1120.817 591.969h-2.075v109.924h2.075zM1094.534 591.969h-2.076v109.924h2.076zM1068.25 591.969h-2.076v109.924h2.076zM1147.101 711.311h-2.075v367.399h2.075zM1120.817 711.311h-2.075v367.399h2.075zM1094.534 711.311h-2.076v367.399h2.076zM1068.25 711.311h-2.076v367.399h2.076z" class="fil0" style="stroke:#727271;stroke-width:.175;stroke-miterlimit:22.9256"></path><path d="m1120.817 711.399-.088-.088.088-.088h24.209v.176h-24.209zm-.088-.088v-.088h.088l-.088.088zm.177 19.719-.089.088-.088-.088v-19.719h.177v19.719zm-.089.088h-.088v-.088l.088.088zm24.209-.176.088.088-.088.088h-24.209v-.176h24.209zm.088.088v.088h-.088l.088-.088zm-.176-19.719.088-.088.088.088v19.719h-.176v-19.719zm.088-.088h.088v.088l-.088-.088zM1147.101 711.399l-.088-.088.088-.088h24.209v.176h-24.209zm-.088-.088v-.088h.088l-.088.088zm.177 19.719-.089.088-.088-.088v-19.719h.177v19.719zm-.089.088h-.088v-.088l.088.088zm24.209-.176.088.088-.088.088h-24.209v-.176h24.209zm.088.088v.088h-.088l.088-.088zm-.177-19.719.089-.088.088.088v19.719h-.177v-19.719zm.089-.088h.088v.088l-.088-.088zM1094.534 711.399l-.089-.088.089-.088h24.208v.176h-24.208zm-.089-.088v-.088h.089l-.089.088zm.177 19.719-.088.088-.089-.088v-19.719h.177v19.719zm-.088.088h-.089v-.088l.089.088zm24.208-.176.088.088-.088.088h-24.208v-.176h24.208zm.088.088v.088h-.088l.088-.088zm-.176-19.719.088-.088.088.088v19.719h-.176v-19.719zm.088-.088h.088v.088l-.088-.088zM1068.25 711.399l-.089-.088.089-.088h24.208v.176h-24.208zm-.089-.088v-.088h.089l-.089.088zm.177 19.719-.088.088-.089-.088v-19.719h.177v19.719zm-.088.088h-.089v-.088l.089.088zm24.208-.176.089.088-.089.088h-24.208v-.176h24.208zm.089.088v.088h-.089l.089-.088zm-.177-19.719.088-.088.089.088v19.719h-.177v-19.719zm.088-.088h.089v.088l-.089-.088zM1041.966 711.399l-.089-.088.089-.088h24.208v.176h-24.208zm-.089-.088v-.088h.089l-.089.088zm.177 19.719-.088.088-.089-.088v-19.719h.177v19.719zm-.088.088h-.089v-.088l.089.088zm24.208-.176.089.088-.089.088h-24.208v-.176h24.208zm.089.088v.088h-.089l.089-.088zm-.177-19.719.088-.088.089.088v19.719h-.177v-19.719zm.088-.088h.089v.088l-.089-.088zM1120.817 1059.079l-.088-.088.088-.088h24.209v.176h-24.209zm-.088-.088v-.088h.088l-.088.088zm.177 19.719-.089.088-.088-.088v-19.719h.177v19.719zm-.089.088h-.088v-.088l.088.088zm24.209-.176.088.088-.088.088h-24.209v-.176h24.209zm.088.088v.088h-.088l.088-.088zm-.176-19.719.088-.088.088.088v19.719h-.176v-19.719zm.088-.088h.088v.088l-.088-.088zM1147.101 1059.079l-.088-.088.088-.088h24.209v.176h-24.209zm-.088-.088v-.088h.088l-.088.088zm.177 19.719-.089.088-.088-.088v-19.719h.177v19.719zm-.089.088h-.088v-.088l.088.088zm24.209-.176.088.088-.088.088h-24.209v-.176h24.209zm.088.088v.088h-.088l.088-.088zm-.177-19.719.089-.088.088.088v19.719h-.177v-19.719zm.089-.088h.088v.088l-.088-.088zM1094.534 1059.079l-.089-.088.089-.088h24.208v.176h-24.208zm-.089-.088v-.088h.089l-.089.088zm.177 19.719-.088.088-.089-.088v-19.719h.177v19.719zm-.088.088h-.089v-.088l.089.088zm24.208-.176.088.088-.088.088h-24.208v-.176h24.208zm.088.088v.088h-.088l.088-.088zm-.176-19.719.088-.088.088.088v19.719h-.176v-19.719zm.088-.088h.088v.088l-.088-.088zM1068.25 1059.079l-.089-.088.089-.088h24.208v.176h-24.208zm-.089-.088v-.088h.089l-.089.088zm.177 19.719-.088.088-.089-.088v-19.719h.177v19.719zm-.088.088h-.089v-.088l.089.088zm24.208-.176.089.088-.089.088h-24.208v-.176h24.208zm.089.088v.088h-.089l.089-.088zm-.177-19.719.088-.088.089.088v19.719h-.177v-19.719zm.088-.088h.089v.088l-.089-.088zM1041.966 1059.079l-.089-.088.089-.088h24.208v.176h-24.208zm-.089-.088v-.088h.089l-.089.088zm.177 19.719-.088.088-.089-.088v-19.719h.177v19.719zm-.088.088h-.089v-.088l.089.088zm24.208-.176.089.088-.089.088h-24.208v-.176h24.208zm.089.088v.088h-.089l.089-.088zm-.177-19.719.088-.088.089.088v19.719h-.177v-19.719zm.088-.088h.089v.088l-.089-.088z" class="fil1"></path><path d="M908.913 711.311h-4.151v367.399h4.151zM1177.094 711.311h-4.151v367.399h4.151z" class="fil0" style="stroke:#727271;stroke-width:.175;stroke-miterlimit:22.9256"></path><path d="M1171.593 1124.461h-41.514v-.175h41.514l.088.088-.088.087zm0-.175h.088v.088l-.088-.088zm-.087 2.163v-2.075h.175v2.075l-.088.087-.087-.087zm.175 0v.087h-.088l.088-.087zm-41.602-.088h41.514v.175h-41.514l-.087-.087.087-.088zm0 .175h-.087v-.087l.087.087zm.088-2.162v2.075h-.175v-2.075l.087-.088.088.088zm-.175 0v-.088h.087l-.087.088zM951.776 1124.461h-41.514v-.175h41.514l.088.088-.088.087zm0-.175h.088v.088l-.088-.088zm-.088 2.163v-2.075h.176v2.075l-.088.087-.088-.087zm.176 0v.087h-.088l.088-.087zm-41.602-.088h41.514v.175h-41.514l-.088-.087.088-.088zm0 .175h-.088v-.087l.088.087zm.088-2.162v2.075h-.176v-2.075l.088-.088.088.088zm-.176 0v-.088h.088l-.088.088z" class="fil1"></path></g><g id="_1962541471136"><path d="M660.466 351.691h120.089M660.466 73.548h120.089" class="fil0 str490"></path><path d="M771.106 234.479v117.212" class="fil2 str490"></path><path id="_1" d="m767.325 337.582 3.781 14.109 3.781-14.109z" class="fil3"></path><path d="M771.106 73.548v117.213" class="fil2 str490"></path><path id="_1_0" d="m767.325 87.657 3.781-14.109 3.781 14.109z" class="fil3"></path></g><path d="M728.907 220.9v-2.347c0-1.244.533-2.267 1.6-3.067l5.253-4c.907-.693 1.36-1.582 1.36-2.666v-1.04c0-1.707-.844-2.56-2.533-2.56h-1.92c-1.671 0-2.507.853-2.507 2.56v1.2c0 .213-.097.32-.293.32h-.773c-.196 0-.294-.107-.294-.32v-1.227c0-1.155.338-2.062 1.014-2.72.675-.657 1.591-.986 2.746-.986h2.16c1.156 0 2.067.324 2.733.973.667.649 1.001 1.56 1.001 2.733v1.12c0 1.387-.561 2.507-1.68 3.36l-5.307 4.08c-.747.569-1.12 1.271-1.12 2.107v1.547h7.893c.196 0 .293.097.293.293v.64c0 .195-.097.293-.293.293h-9.013c-.214 0-.32-.098-.32-.293z" class="fil1"></path><path id="_1_1" d="M745.466 219.993h2.267c.818 0 1.44-.227 1.867-.68.426-.453.64-1.107.64-1.96v-2.56c0-.835-.214-1.48-.64-1.933-.427-.454-1.049-.68-1.867-.68h-4.773v5.173c0 .853.213 1.507.64 1.96.427.453 1.049.68 1.866.68zm2.374 1.2h-2.48c-1.156 0-2.071-.338-2.747-1.013-.675-.676-1.013-1.6-1.013-2.774v-9.573c0-1.173.338-2.097 1.013-2.773.676-.676 1.591-1.013 2.747-1.013h5.067c.195 0 .293.097.293.293v.64c0 .178-.098.267-.293.267h-4.961c-.817 0-1.439.226-1.866.68-.427.453-.64 1.106-.64 1.96v3.093h4.88c1.155 0 2.071.338 2.747 1.013.675.676 1.013 1.592 1.013 2.747v2.666c0 1.174-.338 2.098-1.013 2.774-.676.675-1.592 1.013-2.747 1.013z" class="fil1"></path><path id="_2" d="M758.933 219.993h2.587c1.688 0 2.533-.853 2.533-2.56V215.7c0-1.707-.845-2.56-2.533-2.56h-2.587c-1.671 0-2.507.853-2.507 2.56v1.733c0 1.707.836 2.56 2.507 2.56zm0-8h2.587c.817 0 1.444-.222 1.88-.666.435-.445.653-1.085.653-1.92v-1.6c0-1.707-.845-2.56-2.533-2.56h-2.587c-1.671 0-2.507.853-2.507 2.56v1.6c0 1.724.836 2.586 2.507 2.586zm2.693 9.2h-2.8c-1.155 0-2.071-.324-2.746-.973-.676-.649-1.014-1.551-1.014-2.707v-1.76c0-1.617.649-2.684 1.947-3.2-1.298-.515-1.947-1.573-1.947-3.173v-1.653c0-1.156.338-2.058 1.014-2.707.675-.649 1.591-.973 2.746-.973h2.8c1.156 0 2.067.324 2.734.973.666.649.999 1.551.999 2.707v1.653c0 1.636-.64 2.693-1.919 3.173 1.279.498 1.919 1.565 1.919 3.2v1.76c0 1.156-.333 2.058-.999 2.707-.667.649-1.578.973-2.734.973z" class="fil1"></path><path id="_3" d="M777.306 221.193h-.773c-.178 0-.267-.107-.267-.32v-12.96c0-.213.089-.32.267-.32h.773c.196 0 .293.107.293.32v1.067h.107c.516-.925 1.458-1.387 2.827-1.387h1.093c1.564 0 2.649.623 3.253 1.867.267-.622.72-1.089 1.36-1.4a4.469 4.469 0 0 1 1.974-.467h.986c1.156 0 2.062.338 2.72 1.014.658.675.987 1.6.987 2.773v9.493c0 .213-.098.32-.294.32h-.773c-.195 0-.293-.107-.293-.32v-9.44c0-.853-.213-1.506-.64-1.959-.427-.454-1.049-.681-1.867-.681h-.987c-.853 0-1.529.245-2.026.734-.498.488-.747 1.151-.747 1.986v9.36c0 .213-.098.32-.293.32h-.773c-.196 0-.294-.107-.294-.32v-9.44c0-.853-.213-1.506-.64-1.959-.427-.454-1.049-.681-1.867-.681h-1.066c-.853 0-1.524.227-2.014.681-.488.453-.733 1.097-.733 1.933v9.466c0 .213-.097.32-.293.32z" class="fil1"></path><path id="_4" d="M797.812 221.193h-.773c-.178 0-.267-.107-.267-.32v-12.96c0-.213.089-.32.267-.32h.773c.196 0 .293.107.293.32v1.067h.107c.516-.925 1.458-1.387 2.827-1.387h1.093c1.565 0 2.649.623 3.253 1.867.267-.622.72-1.089 1.36-1.4a4.469 4.469 0 0 1 1.974-.467h.986c1.156 0 2.062.338 2.72 1.014.658.675.987 1.6.987 2.773v9.493c0 .213-.098.32-.294.32h-.773c-.195 0-.293-.107-.293-.32v-9.44c0-.853-.213-1.506-.64-1.959-.427-.454-1.049-.681-1.867-.681h-.987c-.853 0-1.528.245-2.026.734-.498.488-.747 1.151-.747 1.986v9.36c0 .213-.097.32-.293.32h-.773c-.196 0-.293-.107-.293-.32v-9.44c0-.853-.214-1.506-.641-1.959-.426-.454-1.048-.681-1.866-.681h-1.067c-.853 0-1.524.227-2.013.681-.489.453-.734 1.097-.734 1.933v9.466c0 .213-.097.32-.293.32z" class="fil1"></path><g id="_1962541471184"><path d="M651.014 575.763v-116.33M20.001 575.763v-116.33" class="fil0 str490"></path><path d="M391.059 468.882h259.955" class="fil2 str490"></path><path id="_1_2" d="m636.905 472.662 14.109-3.78-14.109-3.781z" class="fil3"></path><path d="M20.001 468.882h259.955" class="fil2 str490"></path><path id="_1_3" d="m34.11 472.662-14.109-3.78 14.109-3.781z" class="fil3"></path></g><path d="M297.108 476.255h2.267c.818 0 1.44-.227 1.867-.68.426-.453.64-1.107.64-1.96v-2.56c0-.836-.214-1.48-.64-1.933-.427-.454-1.049-.68-1.867-.68h-4.773v5.173c0 .853.213 1.507.64 1.96.427.453 1.049.68 1.866.68zm2.374 1.2h-2.48c-1.156 0-2.071-.338-2.747-1.013-.675-.676-1.013-1.6-1.013-2.774v-9.573c0-1.173.338-2.098 1.013-2.773.676-.676 1.591-1.013 2.747-1.013h5.067c.195 0 .293.097.293.293v.64c0 .178-.098.267-.293.267h-4.961c-.817 0-1.439.226-1.866.68-.427.453-.64 1.106-.64 1.96v3.093h4.88c1.155 0 2.071.338 2.746 1.013.676.676 1.014 1.591 1.014 2.747v2.666c0 1.174-.338 2.098-1.014 2.774-.675.675-1.591 1.013-2.746 1.013z" class="fil1"></path><path id="_1_4" d="M310.575 476.255h2.453c.818 0 1.44-.227 1.867-.68.426-.453.64-1.107.64-1.96v-9.466c0-.854-.214-1.507-.64-1.96-.427-.454-1.049-.68-1.867-.68h-2.453c-.818 0-1.44.226-1.867.68-.427.453-.64 1.106-.64 1.96v9.466c0 .853.213 1.507.64 1.96.427.453 1.049.68 1.867.68zm2.56 1.2h-2.667c-1.156 0-2.071-.338-2.746-1.013-.676-.676-1.014-1.6-1.014-2.774v-9.573c0-1.173.338-2.098 1.014-2.773.675-.676 1.59-1.013 2.746-1.013h2.667c1.155 0 2.066.337 2.733 1.013.667.675 1 1.6 1 2.773v9.573c0 1.174-.333 2.098-1 2.774-.667.675-1.578 1.013-2.733 1.013z" class="fil1"></path><path id="_2_5" d="M326.121 467.802h-2.293c-.427 0-.782.071-1.067.213-.284.142-.471.302-.56.48-.231.445-.444.667-.64.667h-.853c-.178 0-.267-.098-.267-.293v-8.241c0-.213.089-.319.267-.319h8.666c.214 0 .32.097.32.293v.667c0 .195-.106.293-.32.293h-7.599v6.4c.319-.871 1.084-1.307 2.293-1.307h2.24c1.155 0 2.062.32 2.72.96.658.64.986 1.547.986 2.72v3.333c0 1.174-.338 2.098-1.013 2.774-.675.675-1.591 1.013-2.747 1.013h-2.133c-1.155 0-2.066-.338-2.733-1.013-.667-.676-1-1.6-1-2.774v-.933c0-.213.089-.32.267-.32h.773c.195 0 .293.107.293.32v.907c0 .835.213 1.484.64 1.946.427.462 1.049.694 1.867.694h1.92c.817 0 1.444-.227 1.88-.681.435-.453.653-1.106.653-1.959v-3.2c0-1.76-.853-2.64-2.56-2.64z" class="fil1"></path><path id="_3_6" d="M341.667 477.455h-.773c-.178 0-.266-.107-.266-.32v-12.96c0-.213.088-.32.266-.32h.773c.196 0 .294.107.294.32v1.067h.106c.516-.925 1.458-1.387 2.827-1.387h1.093c1.565 0 2.649.622 3.253 1.867.267-.622.72-1.089 1.361-1.4a4.465 4.465 0 0 1 1.973-.467h.986c1.156 0 2.063.338 2.721 1.014.657.675.986 1.6.986 2.773v9.493c0 .213-.097.32-.293.32h-.774c-.195 0-.293-.107-.293-.32v-9.44c0-.853-.213-1.507-.64-1.96-.426-.453-1.049-.68-1.866-.68h-.987c-.853 0-1.529.245-2.027.734-.498.488-.746 1.15-.746 1.986v9.36c0 .213-.098.32-.294.32h-.773c-.196 0-.293-.107-.293-.32v-9.44c0-.853-.214-1.507-.64-1.96-.427-.453-1.049-.68-1.867-.68h-1.067c-.853 0-1.524.227-2.013.68-.489.453-.733 1.098-.733 1.934v9.466c0 .213-.098.32-.294.32z" class="fil1"></path><path id="_4_7" d="M362.174 477.455h-.774c-.177 0-.266-.107-.266-.32v-12.96c0-.213.089-.32.266-.32h.774c.195 0 .293.107.293.32v1.067h.106c.516-.925 1.458-1.387 2.827-1.387h1.094c1.564 0 2.648.622 3.253 1.867.266-.622.72-1.089 1.36-1.4a4.465 4.465 0 0 1 1.973-.467h.987c1.155 0 2.062.338 2.72 1.014.657.675.986 1.6.986 2.773v9.493c0 .213-.097.32-.293.32h-.773c-.196 0-.294-.107-.294-.32v-9.44c0-.853-.213-1.507-.64-1.96-.426-.453-1.048-.68-1.866-.68h-.987c-.853 0-1.529.245-2.027.734-.497.488-.746 1.15-.746 1.986v9.36c0 .213-.098.32-.293.32h-.774c-.195 0-.293-.107-.293-.32v-9.44c0-.853-.214-1.507-.64-1.96-.427-.453-1.049-.68-1.867-.68h-1.067c-.853 0-1.524.227-2.013.68-.489.453-.733 1.098-.733 1.934v9.466c0 .213-.098.32-.293.32z" class="fil1"></path><g id="_1962541505936"><path d="M655.173 585.212h130.423M655.173 1126.452h130.423" class="fil0 str490"></path><path d="M776.148 833.973V585.212" class="fil2 str490"></path><path id="_1_8" d="m779.928 599.321-3.78-14.109-3.781 14.109z" class="fil3"></path><path d="M776.148 1126.452V877.691" class="fil2 str490"></path><path id="_1_9" d="m779.928 1112.342-3.78 14.11-3.781-14.11z" class="fil3"></path></g><path d="M739.962 854.752h-2.294c-.426 0-.782.071-1.066.213-.285.143-.471.302-.56.48-.231.445-.445.667-.64.667h-.853c-.178 0-.267-.098-.267-.293v-8.24c0-.213.089-.32.267-.32h8.666c.213 0 .32.097.32.293v.667c0 .195-.107.293-.32.293h-7.6v6.4c.32-.871 1.084-1.306 2.293-1.306h2.24c1.156 0 2.062.319 2.72.96.658.639.987 1.546.987 2.719v3.333c0 1.174-.338 2.098-1.013 2.774-.676.675-1.592 1.013-2.747 1.013h-2.133c-1.156 0-2.067-.338-2.734-1.013-.666-.676-1-1.6-1-2.774v-.933c0-.213.089-.32.267-.32h.774c.195 0 .293.107.293.32v.907c0 .835.213 1.484.64 1.946.426.463 1.049.694 1.866.694h1.92c.818 0 1.445-.227 1.88-.68.436-.453.653-1.107.653-1.96v-3.2c0-1.76-.853-2.64-2.559-2.64z" class="fil1"></path><path id="_1_10" d="M746.948 864.112v-2.347c0-1.244.533-2.266 1.6-3.067l5.253-3.999c.907-.694 1.36-1.583 1.36-2.667v-1.04c0-1.706-.844-2.56-2.533-2.56h-1.92c-1.671 0-2.507.854-2.507 2.56v1.2c0 .214-.097.32-.293.32h-.773c-.196 0-.294-.106-.294-.32v-1.226c0-1.156.338-2.063 1.014-2.721.675-.657 1.591-.986 2.746-.986h2.16c1.156 0 2.067.324 2.734.973.666.649 1 1.56 1 2.734v1.119c0 1.387-.56 2.507-1.68 3.36l-5.307 4.08c-.747.569-1.12 1.271-1.12 2.107v1.547h7.893c.196 0 .293.097.293.293v.64c0 .195-.097.293-.293.293h-9.013c-.213 0-.32-.098-.32-.293z" class="fil1"></path><path id="_2_11" d="M763.721 863.205h2.453c.818 0 1.44-.227 1.867-.68.427-.453.64-1.106.64-1.96v-9.466c0-.853-.213-1.507-.64-1.96-.427-.454-1.049-.68-1.867-.68h-2.453c-.818 0-1.44.226-1.867.68-.426.453-.639 1.107-.639 1.96v9.466c0 .854.213 1.507.639 1.96.427.453 1.049.68 1.867.68zm2.56 1.2h-2.666c-1.156 0-2.072-.338-2.747-1.013-.676-.676-1.013-1.6-1.013-2.774v-9.573c0-1.173.337-2.097 1.013-2.773.675-.676 1.591-1.013 2.747-1.013h2.666c1.155 0 2.067.337 2.733 1.013.667.676 1 1.6 1 2.773v9.573c0 1.174-.333 2.098-1 2.774-.666.675-1.578 1.013-2.733 1.013z" class="fil1"></path><path id="_3_12" d="M781.961 864.405h-.773c-.178 0-.267-.106-.267-.32v-12.96c0-.213.089-.32.267-.32h.773c.196 0 .293.107.293.32v1.067h.107c.516-.924 1.457-1.387 2.826-1.387h1.094c1.564 0 2.649.623 3.253 1.867.267-.622.72-1.089 1.36-1.4a4.468 4.468 0 0 1 1.973-.467h.987c1.156 0 2.062.338 2.72 1.014.658.675.986 1.6.986 2.773v9.493c0 .214-.097.32-.293.32h-.773c-.196 0-.293-.106-.293-.32v-9.44c0-.853-.214-1.506-.64-1.959-.427-.454-1.049-.681-1.867-.681h-.987c-.853 0-1.529.245-2.026.734-.498.489-.747 1.151-.747 1.986v9.36c0 .214-.098.32-.293.32h-.773c-.196 0-.294-.106-.294-.32v-9.44c0-.853-.213-1.506-.64-1.959-.427-.454-1.049-.681-1.867-.681h-1.066c-.853 0-1.525.227-2.014.681-.488.453-.733 1.097-.733 1.933v9.466c0 .214-.097.32-.293.32z" class="fil1"></path><path id="_4_13" d="M802.467 864.405h-.773c-.178 0-.267-.106-.267-.32v-12.96c0-.213.089-.32.267-.32h.773c.196 0 .293.107.293.32v1.067h.107c.516-.924 1.458-1.387 2.827-1.387h1.093c1.564 0 2.649.623 3.253 1.867.267-.622.72-1.089 1.36-1.4a4.469 4.469 0 0 1 1.974-.467h.986c1.156 0 2.062.338 2.72 1.014.658.675.987 1.6.987 2.773v9.493c0 .214-.098.32-.294.32H817c-.195 0-.293-.106-.293-.32v-9.44c0-.853-.213-1.506-.64-1.959-.427-.454-1.049-.681-1.867-.681h-.987c-.853 0-1.528.245-2.026.734-.498.489-.747 1.151-.747 1.986v9.36c0 .214-.098.32-.293.32h-.773c-.196 0-.294-.106-.294-.32v-9.44c0-.853-.213-1.506-.64-1.959-.427-.454-1.049-.681-1.867-.681h-1.066c-.853 0-1.524.227-2.013.681-.489.453-.734 1.097-.734 1.933v9.466c0 .214-.097.32-.293.32z" class="fil1"></path></g></svg>