<?xml version="1.0" encoding="UTF-8"?> <!-- Creator: CorelDRAW 2019 (64-Bit) --> <svg xmlns="http://www.w3.org/2000/svg" xmlns:xlink="http://www.w3.org/1999/xlink" xml:space="preserve" width="1060px" height="200px" style="shape-rendering:geometricPrecision; text-rendering:geometricPrecision; image-rendering:optimizeQuality; fill-rule:evenodd; clip-rule:evenodd" viewBox="0 0 936.33 176.67"> <defs> <style type="text/css"> <![CDATA[ .fil0 {fill:#FEFEFE} ]]> </style> </defs> <g id="Layer_x0020_1"> <metadata id="CorelCorpID_0Corel-Layer"></metadata> <path class="fil0" d="M89.19 0l-82.3 23.69 31.52 18.03 50.78 -14.61 50.78 14.61 31.53 -18.03 -82.31 -23.69zm837.88 49.58l-41.69 65.09 -41.71 -65.09 -9.26 0 0 79.07 11.02 0 0 -55.7 34.88 53.81 10.19 0 34.87 -53.81 0 55.7 10.96 0 0 -79.07 -9.26 0zm-168.97 12.45c-1.81,1.84 -2.7,4.09 -2.7,6.83l0 40.51c0,2.75 0.89,5.04 2.7,6.83 1.81,1.79 4.13,2.65 6.93,2.65l43.25 0c2.79,0 5.07,-0.86 6.93,-2.7 1.87,-1.84 2.79,-4.08 2.79,-6.78l0 -40.51c0,-2.69 -0.92,-4.94 -2.79,-6.78 -1.86,-1.84 -4.14,-2.76 -6.93,-2.76l-43.25 0c-2.8,0 -5.12,0.92 -6.93,2.71zm52.76 -12.45l0 0c4.98,0 9.27,1.8 12.84,5.25 3.57,3.47 5.38,7.65 5.38,12.56l0 43.4c0,4.96 -1.81,9.19 -5.38,12.66 -3.57,3.46 -7.86,5.2 -12.84,5.2l-48.42 0c-5.02,0 -9.31,-1.74 -12.83,-5.2 -3.52,-3.47 -5.28,-7.7 -5.28,-12.66l0 -43.4c0,-4.91 1.76,-9.09 5.28,-12.56 3.52,-3.45 7.81,-5.25 12.83,-5.25l48.42 0zm-72.68 0l0 9.74 -55.88 0c-2.8,0 -5.12,0.92 -6.93,2.76 -1.87,1.84 -2.75,4.09 -2.75,6.78l0 40.51c0,2.7 0.88,4.94 2.75,6.78 1.81,1.84 4.13,2.7 6.93,2.7l55.88 0 0 9.8 -58.47 0c-5.02,0 -9.31,-1.74 -12.83,-5.2 -3.57,-3.47 -5.33,-7.7 -5.33,-12.66l0 -43.4c0,-4.91 1.76,-9.09 5.33,-12.56 3.52,-3.45 7.81,-5.25 12.83,-5.25l58.47 0zm-147 44.89l35.35 0 -17.65 -33.97 -17.7 33.97zm24.32 -44.89l0 0 41.4 79.07 -12.37 0 -12.58 -24.24 -46.09 0 -12.58 24.24 -12.42 0 41.45 -79.07 13.19 0zm-59.45 0l0 10 -55.93 0c-2.79,0 -5.12,0.92 -6.92,2.71 -1.81,1.78 -2.7,4.02 -2.7,6.73l0 13.78 54.49 0 0 9.99 -54.49 0 0 16.37c0,2.76 0.89,5.05 2.7,6.83 1.8,1.79 4.13,2.67 6.92,2.67l55.93 0 0 9.99 -58.51 0c-5.02,0 -9.32,-1.74 -12.84,-5.2 -3.5,-3.47 -5.26,-7.7 -5.26,-12.66l0 -43.4c0,-4.91 1.76,-9.09 5.26,-12.56 3.52,-3.45 7.82,-5.25 12.84,-5.25l58.51 0zm-100.22 79.12l12.37 0 -19.76 -32.86 1.87 0c4.96,0 9.25,-1.68 12.77,-5.15 3.52,-3.52 5.33,-7.75 5.33,-12.64l0 -10.66c0,-4.91 -1.81,-9.09 -5.33,-12.61 -3.52,-3.47 -7.81,-5.2 -12.77,-5.2l-57.64 0 0 79.07 11.01 0 0 -32.81 33.28 0 18.87 32.86zm-8.12 -69.38l0 0c2.7,0 5.02,0.92 6.9,2.71 1.85,1.84 2.79,4.09 2.79,6.83l0 7.7c0,2.67 -0.94,4.91 -2.74,6.74 -1.88,1.84 -4.15,2.76 -6.95,2.76l-44.03 0 0 -26.74 44.03 0zm-67.15 -9.74l0 9.74 -32.81 0 0 69.33 -11.05 0 0 -69.33 -32.76 0 0 -9.74 76.62 0zm-89.19 0l0 9.85 -52.83 0c-2.79,0 -5.11,0.92 -6.94,2.7 -1.86,1.79 -2.73,4.04 -2.73,6.78l0 4.04c0,2.76 0.87,5.05 2.73,6.83 1.83,1.79 4.15,2.66 6.94,2.66l40.26 0c4.95,0 9.2,1.73 12.72,5.2 3.52,3.47 5.33,7.7 5.33,12.59l0 10.61c0,4.96 -1.81,9.14 -5.33,12.61 -3.52,3.46 -7.77,5.2 -12.72,5.2l-58.16 0 0 -9.85 55.57 0c2.73,0 5.01,-0.87 6.88,-2.7 1.86,-1.84 2.79,-4.08 2.79,-6.79l0 -7.09c0,-2.7 -0.93,-4.94 -2.79,-6.73 -1.87,-1.78 -4.15,-2.7 -6.88,-2.7l-40.25 0c-5.02,0 -9.32,-1.74 -12.84,-5.2 -3.52,-3.47 -5.27,-7.65 -5.27,-12.61l0 -7.65c0,-4.89 1.75,-9.08 5.27,-12.55 3.52,-3.47 7.82,-5.2 12.84,-5.2l55.41 0zm-133.43 68.33l20.44 -82.42 -31.53 18.02 -12.63 50.84 -38.15 36.25 0.01 36.07 61.86 -58.76zm-137.48 0l61.84 58.76 0.01 -36.07 -38.15 -36.25 -12.63 -50.84 -31.53 -18.02 20.46 82.42z"></path> </g> </svg> 